<?xml version="1.0" encoding="UTF-8"?>
<svg width="700pt" height="700pt" version="1.1" viewBox="0 0 700 700" xmlns="http://www.w3.org/2000/svg" xmlns:xlink="http://www.w3.org/1999/xlink">
 <g>
  <path d="m215.95 122.85h6.6484c9.4492-1.3984 17.852-7 22.75-15.051l-56-4.5508c4.2031 10.852 14.352 18.551 26.602 19.602z"/>
  <path d="m275.45 103.25-12.949-1.0508-14-1.0508-61.25-4.8984-14.352-1.0508-11.898-1.0508 27.301-11.898c3.5-11.551 13.648-20.301 25.898-21.699 2.1016-0.35156 4.1992-0.35156 6.6484-0.35156 15.051 1.0508 26.602 12.602 28.699 26.602z"/>
  <path d="m605.15 281.4c-38.5-29.398-86.102-46.199-134.4-47.602v-39.547c0-14 11.199-25.199 25.199-25.199v-14c-21.699 0-39.199 17.5-39.199 39.199v39.898c-22.75 0.69922-44.801 4.5508-66.5 11.898l-19.602 5.9531-56.348-52.852v-0.69922c0-5.9492-4.8984-10.852-10.852-10.852l-48.648 0.003906c-1.3984 0-2.8008-1.0508-3.1484-2.1016l-15.051-38.852c-3.8516-9.8008-12.949-16.102-23.449-16.102h-4.1992c-14.699 0-26.949 11.898-26.949 26.949v51.102c10.148-2.1016 20.301-3.5 30.801-3.5 5.9492 0 11.898 0.35156 17.5 1.0508-1.0508-1.3984-1.75-2.8008-2.4492-4.5508l-7.3516-39.898 14 37.449c1.75 4.5508 5.25 8.0508 9.8008 9.4492 0.69922 0.35156 1.75 0.35156 2.4492 0.69922h2.1016 54.25 0.69922l57.75 53.898-0.003907 2.8047c0 25.199-16.102 46.551-38.5 54.602 1.0508 5.25 1.75 10.5 2.4492 15.75 0.35156 2.8008 0.35156 5.6016 0.35156 8.3984 0 7.6992-0.69922 15.75-2.4492 23.102-0.69922 3.8516-1.75 7.6992-3.1484 11.199h72.449c-0.35156-2.4492-0.35156-4.5508-0.35156-7 0-47.602 38.5-86.102 85.75-86.102s85.75 38.5 85.75 86.102c0 2.4492 0 4.5508-0.35156 7h18.199l29.398-76.301c3.1523-7.3516 0.70312-16.449-5.9492-21.352z"/>
  <path d="m101.5 344.75h-14c0-33.602 12.949-65.449 36.75-88.898 23.801-23.801 55.301-36.75 88.898-36.75 33.602 0 65.102 12.949 88.898 36.75l-9.8008 9.8008c-21-21-49-32.898-78.75-32.898s-57.75 11.551-78.75 32.898c-21.695 20.996-33.246 49.348-33.246 79.098z"/>
  <path d="m211.75 444.15h1.0508c1.75 0 3.5 0 5.25-0.35156 16.449-15.051 37.801-24.148 60.551-24.852 12.25-10.852 21.699-24.5 27.301-39.898 1.75-4.5508 3.1484-9.1016 4.1992-14 1.3984-6.6484 2.1016-13.301 2.1016-20.301 0-2.4492 0-4.8984-0.35156-7.3516-0.35156-4.5508-1.0508-9.4492-2.1016-14-9.8008-44.801-49.352-78.398-96.949-78.398-54.602 0-99.051 44.449-99.051 99.398 0 29.398 12.949 56 33.25 74.199h0.35156c24.148 0.35547 46.898 9.457 64.398 25.555zm1.3984-140.7c22.75 0 41.301 18.551 41.301 41.301s-18.551 41.301-41.301 41.301-41.301-18.551-41.301-41.301c0.003906-22.75 18.551-41.301 41.301-41.301z"/>
  <path d="m488.95 443.45c11.898-10.5 25.898-18.199 41.301-21.699 12.25-12.949 19.602-30.449 19.602-49.352 0-39.898-32.199-72.102-71.75-72.102-39.551 0.003906-71.402 32.203-71.402 71.754 0 17.852 6.6484 34.301 17.5 47.25 21.352 1.3984 41.648 10.148 57.398 24.852 2.4531-0.35156 4.9023-0.35156 7.3516-0.70312zm-44.098-71.398c0-18.551 15.051-33.602 33.602-33.602s33.602 15.051 33.602 33.602-15.051 33.602-33.602 33.602c-18.555 0.34766-33.602-15.051-33.602-33.602z"/>
  <path d="m552.65 432.95c-24.148 0-46.551 10.5-62.301 29.051l-5.25 6.3008-5.5977-6.3008c-15.398-18.551-38.148-29.051-62.301-29.051-24.148 0-46.551 10.5-62.301 29.051l-5.25 6.3008-5.25-6.3008c-15.398-18.551-38.148-29.051-62.301-29.051-24.148 0-46.551 10.5-62.301 29.051l-5.25 6.3008-5.25-6.3008c-15.398-18.551-38.148-29.051-62.301-29.051-23.102 0-45.148 9.8008-60.551 27.301v39.203h526.05l0.003906-5.9531v-32.902c-15.051-17.848-36.75-27.648-59.852-27.648z"/>
 </g>
</svg>
