<?xml version="1.0" standalone="no"?>
<!DOCTYPE svg PUBLIC "-//W3C//DTD SVG 20010904//EN"
 "http://www.w3.org/TR/2001/REC-SVG-20010904/DTD/svg10.dtd">
<svg version="1.0" xmlns="http://www.w3.org/2000/svg"
 width="800.000000pt" height="600.000000pt" viewBox="0 0 800.000000 600.000000"
 preserveAspectRatio="xMidYMid meet">
<metadata>
Created by potrace 1.16, written by Peter Selinger 2001-2019
</metadata>
<g transform="translate(0.000000,600.000000) scale(0.100000,-0.100000)"
fill="#000000" stroke="none">
<path d="M2153 4031 c-125 -43 -270 -182 -423 -407 l-58 -85 1 113 c2 88 -2
123 -16 160 -38 97 -122 135 -230 104 -113 -33 -240 -156 -387 -378 l-77 -117
-6 69 c-7 88 -33 191 -64 257 -62 134 -210 203 -372 173 -162 -29 -280 -140
-268 -249 7 -64 44 -95 104 -88 54 6 70 19 85 69 9 31 9 41 0 47 -9 6 -7 15 9
35 42 54 129 71 195 40 24 -12 41 -32 61 -72 27 -55 28 -61 28 -227 0 -147 -4
-187 -28 -300 -43 -202 -82 -350 -144 -543 -70 -220 -70 -221 -43 -255 18 -22
29 -27 66 -27 94 0 169 111 269 400 113 327 230 565 398 813 67 98 155 197
176 197 11 0 13 -20 8 -97 -7 -150 -66 -406 -189 -828 -76 -260 -79 -285 -43
-314 51 -39 119 -22 168 43 35 45 84 145 137 281 119 301 366 727 519 896 l50
54 -64 -195 c-279 -857 -294 -1307 -47 -1426 48 -23 149 -30 198 -14 47 16
129 98 164 162 21 40 22 50 12 72 -26 59 -95 53 -135 -11 -41 -65 -76 -86
-115 -72 -74 28 -80 258 -16 579 47 236 181 693 266 905 56 142 46 205 -39
241 -43 19 -87 17 -150 -5z"/>
<path d="M6113 4030 c-133 -59 -291 -422 -383 -880 -42 -211 -54 -316 -53
-490 0 -291 68 -458 202 -499 57 -17 127 -13 170 8 63 33 171 168 171 216 0
26 -26 51 -62 60 -22 6 -32 2 -53 -22 -87 -98 -104 -113 -128 -113 -32 0 -42
13 -62 83 -49 168 6 615 121 1000 42 138 136 400 184 512 26 60 25 87 -2 112
-33 29 -61 33 -105 13z"/>
<path d="M6686 4039 c-153 -41 -349 -536 -433 -1089 -25 -170 -23 -439 5 -543
49 -180 128 -257 263 -257 83 1 157 53 224 160 49 78 41 118 -28 135 -24 6
-32 2 -60 -30 -83 -96 -96 -106 -124 -103 -40 4 -61 54 -73 169 -31 308 102
911 309 1399 36 85 38 99 11 132 -22 29 -53 38 -94 27z"/>
<path d="M3262 4018 c-143 -100 -301 -524 -389 -1041 -21 -124 -25 -463 -6
-543 33 -139 91 -230 167 -265 56 -26 138 -24 194 2 70 34 182 191 166 233 -9
24 -60 47 -88 40 -14 -3 -38 -27 -59 -58 -34 -51 -88 -89 -112 -79 -7 2 -20
21 -29 41 -99 221 18 885 259 1479 58 143 61 170 22 198 -31 22 -88 18 -125
-7z"/>
<path d="M3777 4017 c-94 -57 -182 -224 -261 -495 -75 -258 -117 -535 -119
-787 -2 -144 0 -164 19 -200 26 -51 65 -71 113 -59 34 9 37 13 63 92 25 78 59
166 108 276 28 63 34 57 100 -107 81 -205 120 -274 201 -356 50 -49 129 -91
175 -91 73 0 157 50 181 107 12 31 12 38 -2 59 -18 28 -75 33 -95 9 -13 -16
-38 -19 -64 -9 -29 11 -83 117 -131 254 -26 74 -51 143 -56 152 -7 14 -1 22
35 43 64 37 149 133 187 210 53 108 51 242 -5 303 -56 62 -170 75 -269 29 -70
-32 -163 -122 -230 -222 -26 -38 -47 -64 -47 -56 0 7 20 95 45 195 49 201 105
371 165 505 22 49 40 96 40 105 0 9 -11 28 -25 41 -31 32 -78 32 -128 2z m283
-736 c0 -111 -114 -264 -221 -295 -80 -24 -83 -23 -55 32 73 145 211 312 257
312 16 0 19 -8 19 -49z"/>
<path d="M2693 3829 c-36 -23 -58 -64 -74 -139 -16 -75 0 -127 46 -146 52 -21
60 -18 99 34 87 119 109 201 65 248 -29 31 -90 32 -136 3z"/>
<path d="M5506 3820 c-63 -55 -89 -198 -46 -253 25 -31 74 -44 97 -25 26 20
99 139 113 181 23 73 -13 127 -87 127 -33 0 -50 -7 -77 -30z"/>
<path d="M4854 3616 c-101 -44 -97 -144 10 -263 42 -47 46 -55 46 -102 0 -200
-140 -533 -271 -645 -78 -66 -99 -48 -99 86 0 111 26 245 86 448 51 171 52
183 20 214 -19 19 -35 26 -66 26 -81 0 -166 -122 -225 -326 -96 -330 -51 -574
117 -630 162 -53 333 68 466 331 51 99 107 267 122 360 19 121 14 113 68 113
56 0 105 22 128 56 17 27 32 136 18 136 -5 0 -27 -12 -49 -25 -44 -27 -75 -31
-123 -14 -24 8 -31 18 -37 47 -4 20 -19 64 -35 99 -42 92 -100 122 -176 89z"/>
<path d="M7199 3480 c-51 -15 -145 -71 -197 -116 -71 -62 -163 -206 -212 -329
-107 -274 -83 -515 58 -577 124 -55 235 1 388 198 36 46 66 84 67 84 1 0 2
-53 3 -117 0 -127 17 -210 59 -293 44 -88 125 -131 204 -110 87 23 186 191
139 238 -7 7 -29 12 -50 12 -41 0 -61 -15 -91 -70 -31 -57 -40 -26 -39 137 2
228 61 525 138 692 40 88 42 114 9 146 -29 30 -92 34 -136 8 -15 -9 -30 -15
-32 -12 -69 97 -110 119 -213 118 -38 0 -81 -4 -95 -9z m143 -166 c14 -23 30
-37 49 -41 16 -3 31 -9 34 -13 5 -9 -167 -298 -273 -458 -42 -64 -99 -139
-127 -167 l-50 -50 -3 80 c-6 133 31 293 103 451 70 154 143 234 213 234 27 0
36 -6 54 -36z"/>
<path d="M2595 3424 c-96 -49 -153 -174 -201 -439 -21 -111 -30 -398 -15 -454
17 -61 50 -91 100 -91 67 0 76 17 86 165 11 171 90 506 160 676 31 77 21 123
-30 145 -44 18 -63 18 -100 -2z"/>
<path d="M5414 3421 c-99 -45 -174 -236 -208 -533 -36 -306 -7 -448 93 -448
65 0 78 18 86 117 15 207 73 476 144 670 23 61 41 118 41 127 0 31 -21 57 -55
72 -44 18 -51 17 -101 -5z"/>
</g>
</svg>
