<?xml version="1.0" encoding="UTF-8"?>
<svg width="700pt" height="700pt" version="1.1" viewBox="0 0 700 700" xmlns="http://www.w3.org/2000/svg" xmlns:xlink="http://www.w3.org/1999/xlink">
 <g>
  <path d="m595.28 358.96c-1.6797-5.6016-7.2812-8.9609-12.879-7.2812l-45.363 12.32-44.801-24.641 54.879-31.922c5.0391-2.8008 6.7188-8.9609 3.9219-14-2.8008-5.0391-8.9609-6.7188-14-3.9219l-65.52 38.078-101.36-56 95.199-64.395 64.398 37.52c1.6797 1.1211 3.3594 1.6797 5.0391 1.6797 3.3594 0 6.7188-1.6797 8.9609-5.0391 2.8008-5.0391 1.1211-11.199-3.9219-14l-56-32.48 44.238-29.68 49.281 14c1.1211 0 1.6797 0.55859 2.8008 0.55859 4.4805 0 8.3984-2.8008 10.078-7.2812 1.6797-5.6016-1.6797-11.199-7.2812-12.879l-32.48-8.9609 26.879-17.922c4.4805-3.3594 6.1602-9.5195 2.8008-14.559-3.3594-4.4805-9.5195-6.1602-14.559-2.8008l-23.52 15.68 6.7188-28.559c1.1211-5.6016-2.2383-11.199-7.8398-12.32s-11.199 2.2383-12.32 7.8398l-11.762 50.398-42.559 28.559-3.9219-62.719c-0.55859-5.6016-5.0391-10.078-10.641-9.5195s-10.078 5.0391-9.5195 10.641l4.4805 75.039-94.07 62.727v-124.88l64.961-40.879c5.0391-2.8008 6.1602-9.5195 3.3594-14-2.8008-5.0391-9.5195-6.1602-14-3.3594l-54.32 33.602v-44.238l38.641-34.719c4.4805-3.9219 4.4805-10.078 0.55859-14.559-3.9219-4.4805-10.078-4.4805-14.559-0.55859l-24.641 22.398v-14.566c0-5.6016-4.4805-10.078-10.078-10.078-5.6016 0-10.078 4.4805-10.078 10.078v14.559l-24.078-21.84c-4.4844-4.4766-11.207-3.918-15.125 0-3.9219 3.9219-3.3594 10.641 0.55859 14.559l38.078 34.719v44.238l-57.68-34.16c-5.0391-2.8008-11.199-1.1211-14 3.3594-2.8008 5.0391-1.1211 11.199 3.3594 14l68.32 40.32v127.68l-89.039-49.281 5.6016-73.359c0.55859-5.6016-3.9219-10.641-9.5195-11.199-5.6016-0.55859-10.641 3.9219-11.199 9.5195l-4.4805 63.84-50.961-28-15.68-48.16c-1.6797-5.6016-7.8398-8.3984-12.879-6.7188-5.6016 1.6797-8.3984 7.8398-6.7188 12.879l8.9609 27.441-21.84-11.762c-5.0391-2.8008-11.199-1.1211-14 3.9219-2.8008 5.0391-1.1211 11.199 3.9219 14l21.281 11.762-34.168 8.4023c-5.5977 1.1211-8.9609 6.7227-7.2773 12.32 1.1211 4.4805 5.6016 7.8398 10.078 7.8398h2.2383l56-12.879 49.84 27.441-53.762 33.039c-5.0391 2.8008-6.1602 9.5195-3.3594 14 1.6797 3.3594 5.6016 5.0391 8.9609 5.0391 1.6797 0 3.9219-0.55859 5.6016-1.6797l63.84-39.199 89.039 49.281-78.398 52.641-70-35.281c-5.0391-2.8008-11.199-0.55859-14 4.4805-2.8008 5.0391-0.55859 11.199 4.4805 14l59.359 29.68-54.32 36.398-56-10.078c-5.6016-1.1211-11.199 2.8008-11.762 8.3984-1.1211 5.6016 2.8008 11.199 8.3984 11.762l34.719 6.1602-24.078 16.238c-4.4805 3.3594-6.1602 9.5195-2.8008 14.559 2.2383 2.8008 5.0391 4.4805 8.3984 4.4805 2.2383 0 3.9219-0.55859 5.6016-1.6797l21.84-14.559-10.078 34.719c-1.6797 5.6016 1.6797 11.199 7.2812 12.879 1.1211 0 1.6797 0.55859 2.8008 0.55859 4.4805 0 8.3984-2.8008 10.078-7.2812l16.801-58.238 52.078-34.719-5.0391 66.641c-0.55859 5.6016 3.9219 10.641 9.5195 11.199h0.55859c5.6016 0 10.078-3.9219 10.078-9.5195l6.1602-82.879 77.848-52.641v117.6l-67.762 34.719c-5.0391 2.8008-7.2812 8.9609-4.4805 14 2.8008 5.0391 8.9609 7.2812 14 4.4805l58.238-29.68v50.398l-43.121 48.719c-3.9219 4.4805-3.3594 10.641 1.1211 14.559 4.4805 3.9219 10.641 3.3594 14.559-1.1211l27.441-31.359v29.68c0 5.6016 4.4805 10.078 10.078 10.078 5.6016 0 10.078-4.4805 10.078-10.078v-28.559l25.762 30.238c2.2383 2.2383 5.0391 3.3594 7.8398 3.3594 2.2383 0 4.4805-0.55859 6.7188-2.2383 4.4805-3.9219 5.0391-10.078 1.1211-14.559l-41.441-48.719v-48.719l54.879 28c1.6797 0.55859 3.3594 1.1211 4.4805 1.1211 3.9219 0 7.2812-2.2383 8.9609-5.6016 2.8008-5.0391 0.55859-11.199-4.4805-14l-64.398-32.48 0.003906-120.96 100.24 55.441-3.3594 75.039c0 5.6016 3.9219 10.641 10.078 10.641h0.55859c5.6016 0 10.078-4.4805 10.078-10.078l2.8008-64.961 45.922 25.199 14 54.32c1.1211 4.4805 5.6016 7.8398 10.078 7.8398 0.55859 0 1.6797 0 2.8008-0.55859 5.6016-1.6797 8.9609-7.2812 7.2812-12.32l-8.3945-35.281 21.281 11.762c1.6797 1.1211 3.3594 1.1211 5.0391 1.1211 3.3594 0 7.2812-1.6797 8.9609-5.0391 2.8008-5.0391 1.1211-11.199-3.9219-14l-20.16-11.199 25.199-6.7188c5.6016-1.125 8.9609-6.7266 7.2812-12.324z"/>
 </g>
</svg>
