<?xml version="1.0" encoding="UTF-8"?>
<svg width="700pt" height="700pt" version="1.1" viewBox="0 0 700 700" xmlns="http://www.w3.org/2000/svg" xmlns:xlink="http://www.w3.org/1999/xlink">
 <g>
  <path d="m262.5 341.25c2.3203 0 4.5469-0.92188 6.1875-2.5625s2.5625-3.8672 2.5625-6.1875v-43.75c0-4.832-3.918-8.75-8.75-8.75s-8.75 3.918-8.75 8.75v43.75c0 2.3203 0.92188 4.5469 2.5625 6.1875s3.8672 2.5625 6.1875 2.5625z"/>
  <path d="m262.5 385c2.3203 0 4.5469-0.92188 6.1875-2.5625s2.5625-3.8672 2.5625-6.1875v-8.75c0-4.832-3.918-8.75-8.75-8.75s-8.75 3.918-8.75 8.75v8.75c0 2.3203 0.92188 4.5469 2.5625 6.1875s3.8672 2.5625 6.1875 2.5625z"/>
  <path d="m535.62 94.383c-49.23-49.227-116-76.883-185.62-76.883s-136.39 27.656-185.62 76.883c-49.227 49.23-76.883 116-76.883 185.62s27.656 136.39 76.883 185.62c49.23 49.227 116 76.883 185.62 76.883s136.39-27.656 185.62-76.883c49.227-49.23 76.883-116 76.883-185.62s-27.656-136.39-76.883-185.62zm-358.86 358.86c-44.879-44.871-70.59-105.41-71.723-168.86-1.1289-63.453 22.406-124.87 65.656-171.31l48.059 48.055v261.06c0.011719 11.02 4.3945 21.582 12.188 29.375s18.355 12.176 29.375 12.188h196.88c8.2344-0.007812 16.281-2.4609 23.125-7.0469 6.8398-4.5859 12.168-11.098 15.309-18.711l21.312 21.316c-46.445 43.246-107.86 66.785-171.31 65.652-63.453-1.1328-123.99-26.844-168.86-71.719zm135.65-225.74h-1.7812c-0.26562 0-0.52734-0.03125-0.78906-0.039062l-21.043-21.043c-0.011719-0.26562-0.039063-0.52344-0.039063-0.78906l-0.003906-82.211c5.0352 1.4336 9.4648 4.4688 12.625 8.6445 3.1562 4.1758 4.8672 9.2656 4.875 14.5v60.156c-0.007812 7.3789 2.1328 14.598 6.1562 20.781zm151.34-104.09c5.0352 1.4336 9.4688 4.4688 12.625 8.6484 3.1562 4.1758 4.8672 9.2695 4.875 14.504v252.31l-17.5-17.5zm0 282.71 17.441 17.441c-0.28906 4.9883-2.125 9.7656-5.25 13.668-3.125 3.8984-7.3867 6.7344-12.191 8.1055zm-17.5-42.246-118.88-118.88h44.5c10.438-0.011719 20.449-4.1641 27.828-11.547 7.3828-7.3789 11.535-17.391 11.547-27.828v-74.375c0.003906-4.832 3.918-8.7461 8.75-8.75h26.25zm-175-175-35-35v-22.629c0.003906-4.832 3.918-8.7461 8.75-8.75h26.25zm1.0664 25.812v-0.003906c1.6953 7.1016 5.3242 13.598 10.488 18.758 5.1602 5.1641 11.656 8.793 18.758 10.488l144.69 144.69v57.625h-185.94c-6.3789-0.007812-12.496-2.543-17.008-7.0547-4.5117-4.5117-7.0469-10.629-7.0547-17.008v-243.56zm256.99 232.24-30.559-30.559v-269.81c-0.011719-11.02-4.3945-21.582-12.188-29.375s-18.355-12.176-29.375-12.188h-37.188c-6.9609 0.007812-13.633 2.7773-18.555 7.6953-4.918 4.9219-7.6875 11.594-7.6953 18.555v74.375c-0.007812 5.8008-2.3125 11.359-6.4141 15.461-4.1016 4.1016-9.6602 6.4062-15.461 6.4141h-27.344c-5.5078-0.007812-10.793-2.1992-14.688-6.0938s-6.0859-9.1797-6.0938-14.688v-60.156c-0.011719-11.02-4.3945-21.582-12.188-29.375s-18.355-12.176-29.375-12.188h-37.188c-6.9609 0.007812-13.633 2.7773-18.555 7.6953-4.918 4.9219-7.6875 11.594-7.6953 18.555v5.125l-35.684-35.684c46.445-43.246 107.86-66.781 171.31-65.648 63.453 1.1328 123.99 26.84 168.86 71.715s70.582 105.41 71.715 168.86c1.1328 63.453-22.402 124.87-65.648 171.31z"/>
 </g>
</svg>
