<?xml version="1.0" encoding="UTF-8"?>
<svg width="700pt" height="700pt" version="1.1" viewBox="0 0 700 700" xmlns="http://www.w3.org/2000/svg" xmlns:xlink="http://www.w3.org/1999/xlink">
 <g>
  <path d="m411.68 166.25c23.887 0 43.32-19.434 43.32-43.32 0-7.5156-1.9766-14.953-5.7031-21.5l-38.047-66.57-38.047 66.578c-3.7266 6.5391-5.7031 13.977-5.7031 21.492 0 23.887 19.434 43.32 44.18 43.32zm-23.277-56.133 22.848-39.977 22.848 39.98c2.2227 3.8906 3.4023 8.3281 3.4023 12.809 0 14.234-11.586 25.82-26.68 25.82-14.234 0-25.82-11.586-25.82-25.82 0-4.4805 1.1797-8.918 3.4023-12.812z"/>
  <path d="m586.25 105c0-24.125-19.625-43.75-43.75-43.75h-45.621c-15.969-31.113-48.32-52.5-85.629-52.5s-69.66 21.387-85.629 52.5h-168.12c-24.125 0-43.75 19.625-43.75 43.75v43.75h35v367.5h36.918l8.7422 35h66.168l8.7422-35h161.34l8.7422 35h66.168l8.7422-35h36.938v-367.5h35zm-43.75-26.25c11.391 0 21.016 7.3398 24.641 17.5h-60.078c-0.54297-6.0195-1.6797-11.855-3.2891-17.5zm-131.25-52.5c43.426 0 78.75 35.332 78.75 78.75s-35.324 78.75-78.75 78.75-78.75-35.332-78.75-78.75 35.324-78.75 78.75-78.75zm-253.75 52.5h161.23c-1.6016 5.6445-2.7383 11.48-3.2891 17.5h-182.58c3.625-10.16 13.25-17.5 24.641-17.5zm-26.25 35h184.2c0.54297 6.0195 1.6797 11.855 3.2891 17.5h-187.48zm115.67 420h-38.832l-4.3828-17.5h47.59zm245 0h-38.832l-4.3828-17.5h47.59zm41.832-35h-367.5v-350h159.37c15.969 31.113 48.309 52.5 85.629 52.5s69.66-21.387 85.629-52.5h36.871zm-29.977-367.5c1.6016-5.6445 2.7383-11.48 3.2891-17.5h61.688v17.5z"/>
  <path d="m183.75 481.25h332.5v-122.5h-332.5zm17.5-17.5v-74.715c39.34 36.582 91.254 57.215 145.51 57.215h6.4766c54.258 0 106.17-20.633 145.51-57.215v74.715zm11.953-87.5h273.61c-36.109 33.566-83.754 52.5-133.56 52.5h-6.4766c-49.816 0-97.469-18.934-133.57-52.5z"/>
  <path d="m323.75 393.75h52.5v17.5h-52.5z"/>
  <path d="m411.25 341.25h105v-52.5h-105zm17.5-35h70v17.5h-70z"/>
  <path d="m411.25 271.25h105v-52.5h-105zm17.5-35h70v17.5h-70z"/>
  <path d="m367.5 341.25c14.473 0 26.25-11.777 26.25-26.25s-11.777-26.25-26.25-26.25-26.25 11.777-26.25 26.25 11.777 26.25 26.25 26.25zm0-35c4.8281 0 8.75 3.9297 8.75 8.75s-3.9219 8.75-8.75 8.75-8.75-3.9297-8.75-8.75 3.9219-8.75 8.75-8.75z"/>
  <path d="m367.5 271.25c14.473 0 26.25-11.777 26.25-26.25s-11.777-26.25-26.25-26.25-26.25 11.777-26.25 26.25 11.777 26.25 26.25 26.25zm0-35c4.8281 0 8.75 3.9297 8.75 8.75s-3.9219 8.75-8.75 8.75-8.75-3.9297-8.75-8.75 3.9219-8.75 8.75-8.75z"/>
  <path d="m323.75 166.25h-140v175h140zm-17.5 157.5h-105v-140h105z"/>
 </g>
</svg>
